<svg width="62" height="69" viewBox="0 0 62 69" fill="none" xmlns="http://www.w3.org/2000/svg">
<g filter="url(#filter0_dd_1_743)">
<rect x="29" y="9.07324" width="24" height="24" rx="6" fill="white"/>
</g>
<path d="M39.25 15.2399C37.7217 15.2399 36.4792 16.4824 36.4792 18.0107C36.4792 19.5099 37.6517 20.7232 39.18 20.7757C39.2267 20.7699 39.2733 20.7699 39.3083 20.7757C39.32 20.7757 39.3258 20.7757 39.3375 20.7757C39.3433 20.7757 39.3433 20.7757 39.3492 20.7757C40.8425 20.7232 42.015 19.5099 42.0208 18.0107C42.0208 16.4824 40.7783 15.2399 39.25 15.2399Z" fill="#0771DE"/>
<path d="M42.2133 22.3274C40.5858 21.2424 37.9317 21.2424 36.2925 22.3274C35.5517 22.8232 35.1433 23.4941 35.1433 24.2116C35.1433 24.9291 35.5517 25.5941 36.2867 26.0841C37.1033 26.6324 38.1767 26.9066 39.25 26.9066C40.3233 26.9066 41.3967 26.6324 42.2133 26.0841C42.9483 25.5882 43.3567 24.9232 43.3567 24.1999C43.3508 23.4824 42.9483 22.8174 42.2133 22.3274Z" fill="#0771DE"/>
<path opacity="0.4" d="M45.6608 18.3549C45.7542 19.4866 44.9492 20.4782 43.835 20.6124C43.8292 20.6124 43.8292 20.6124 43.8233 20.6124H43.8058C43.7708 20.6124 43.7358 20.6124 43.7067 20.6241C43.1408 20.6532 42.6217 20.4724 42.2308 20.1399C42.8317 19.6032 43.1758 18.7982 43.1058 17.9232C43.065 17.4507 42.9017 17.0191 42.6567 16.6516C42.8783 16.5407 43.135 16.4707 43.3975 16.4474C44.5408 16.3482 45.5617 17.1999 45.6608 18.3549Z" fill="#0771DE"/>
<path opacity="0.4" d="M46.8275 23.7507C46.7808 24.3166 46.4192 24.8066 45.8125 25.1391C45.2292 25.4599 44.4942 25.6116 43.765 25.5941C44.185 25.2149 44.43 24.7424 44.4767 24.2407C44.535 23.5174 44.1908 22.8232 43.5025 22.2691C43.1117 21.9599 42.6567 21.7149 42.1608 21.5341C43.45 21.1607 45.0717 21.4116 46.0692 22.2166C46.6058 22.6482 46.88 23.1907 46.8275 23.7507Z" fill="#0771DE"/>
<defs>
<filter id="filter0_dd_1_743" x="0" y="-13.9268" width="82" height="82" filterUnits="userSpaceOnUse" color-interpolation-filters="sRGB">
<feFlood flood-opacity="0" result="BackgroundImageFix"/>
<feColorMatrix in="SourceAlpha" type="matrix" values="0 0 0 0 0 0 0 0 0 0 0 0 0 0 0 0 0 0 127 0" result="hardAlpha"/>
<feOffset dy="0.751293"/>
<feGaussianBlur stdDeviation="1.81563"/>
<feColorMatrix type="matrix" values="0 0 0 0 0.34902 0 0 0 0 0.423529 0 0 0 0 0.580392 0 0 0 0.035 0"/>
<feBlend mode="normal" in2="BackgroundImageFix" result="effect1_dropShadow_1_743"/>
<feColorMatrix in="SourceAlpha" type="matrix" values="0 0 0 0 0 0 0 0 0 0 0 0 0 0 0 0 0 0 127 0" result="hardAlpha"/>
<feOffset dy="6"/>
<feGaussianBlur stdDeviation="14.5"/>
<feColorMatrix type="matrix" values="0 0 0 0 0.34902 0 0 0 0 0.423529 0 0 0 0 0.580392 0 0 0 0.07 0"/>
<feBlend mode="normal" in2="effect1_dropShadow_1_743" result="effect2_dropShadow_1_743"/>
<feBlend mode="normal" in="SourceGraphic" in2="effect2_dropShadow_1_743" result="shape"/>
</filter>
</defs>
</svg>
